<mxfile host="app.diagrams.net" modified="2023-01-11T11:07:59.201Z" agent="5.0 (Windows NT 10.0; Win64; x64) AppleWebKit/537.36 (KHTML, like Gecko) Chrome/108.0.0.0 Safari/537.36 Edg/108.0.1462.76" version="20.8.3" etag="nrVSoxml5z4g4k-sI6xD" type="github">
  <diagram id="J-PO3KiKR2bWTxEIyzNj" name="Page-1">
    <mxGraphModel dx="1387" dy="1896" grid="1" gridSize="10" guides="1" tooltips="1" connect="1" arrows="1" fold="1" page="1" pageScale="1" pageWidth="850" pageHeight="1100" math="0" shadow="0">
      <root>
        <mxCell id="0" />
        <mxCell id="1" parent="0" />
        <mxCell id="RJd5q02op_8VBt5y6fWm-1" value="START" style="ellipse;whiteSpace=wrap;html=1;fillColor=#f8cecc;strokeColor=#b85450;fontColor=#FF0000;" vertex="1" parent="1">
          <mxGeometry x="240" y="-10" width="200" height="50" as="geometry" />
        </mxCell>
        <mxCell id="RJd5q02op_8VBt5y6fWm-2" value="Welcome message" style="shape=parallelogram;perimeter=parallelogramPerimeter;whiteSpace=wrap;html=1;fixedSize=1;fillColor=#dae8fc;strokeColor=#6c8ebf;" vertex="1" parent="1">
          <mxGeometry x="240" y="80" width="200" height="40" as="geometry" />
        </mxCell>
        <mxCell id="RJd5q02op_8VBt5y6fWm-3" value="User Input" style="shape=parallelogram;perimeter=parallelogramPerimeter;whiteSpace=wrap;html=1;fixedSize=1;labelBorderColor=none;fillColor=#dae8fc;strokeColor=#6c8ebf;fontColor=#000099;" vertex="1" parent="1">
          <mxGeometry x="120" y="280" width="200" height="40" as="geometry" />
        </mxCell>
        <mxCell id="RJd5q02op_8VBt5y6fWm-4" value="Process &lt;br&gt;initialization variable" style="rounded=0;whiteSpace=wrap;html=1;fillColor=#d5e8d4;strokeColor=#82b366;fontColor=#00331A;" vertex="1" parent="1">
          <mxGeometry x="120" y="340" width="200" height="40" as="geometry" />
        </mxCell>
        <mxCell id="RJd5q02op_8VBt5y6fWm-5" value="" style="endArrow=classic;html=1;rounded=0;entryX=0.5;entryY=0;entryDx=0;entryDy=0;fillColor=#f8cecc;strokeColor=#b85450;" edge="1" parent="1" source="RJd5q02op_8VBt5y6fWm-1" target="RJd5q02op_8VBt5y6fWm-2">
          <mxGeometry width="50" height="50" relative="1" as="geometry">
            <mxPoint x="190" y="110" as="sourcePoint" />
            <mxPoint x="240" y="60" as="targetPoint" />
          </mxGeometry>
        </mxCell>
        <mxCell id="RJd5q02op_8VBt5y6fWm-6" value="" style="endArrow=classic;html=1;rounded=0;exitX=0.5;exitY=1;exitDx=0;exitDy=0;fillColor=#dae8fc;strokeColor=#6c8ebf;" edge="1" parent="1" source="RJd5q02op_8VBt5y6fWm-2">
          <mxGeometry width="50" height="50" relative="1" as="geometry">
            <mxPoint x="160" y="170" as="sourcePoint" />
            <mxPoint x="340" y="140" as="targetPoint" />
          </mxGeometry>
        </mxCell>
        <mxCell id="RJd5q02op_8VBt5y6fWm-7" value="" style="endArrow=classic;html=1;rounded=0;exitX=0.5;exitY=1;exitDx=0;exitDy=0;entryX=0.5;entryY=0;entryDx=0;entryDy=0;fillColor=#dae8fc;strokeColor=#6c8ebf;" edge="1" parent="1" source="RJd5q02op_8VBt5y6fWm-3" target="RJd5q02op_8VBt5y6fWm-4">
          <mxGeometry width="50" height="50" relative="1" as="geometry">
            <mxPoint x="150" y="250" as="sourcePoint" />
            <mxPoint x="350" y="230" as="targetPoint" />
          </mxGeometry>
        </mxCell>
        <mxCell id="RJd5q02op_8VBt5y6fWm-10" value="Process checked correct variable" style="rounded=0;whiteSpace=wrap;html=1;fillColor=#d5e8d4;strokeColor=#82b366;fontColor=#003300;" vertex="1" parent="1">
          <mxGeometry x="120" y="400" width="200" height="40" as="geometry" />
        </mxCell>
        <mxCell id="RJd5q02op_8VBt5y6fWm-12" value="Process Calculate" style="rounded=0;whiteSpace=wrap;html=1;fillColor=#d5e8d4;strokeColor=#82b366;fontColor=#00331A;" vertex="1" parent="1">
          <mxGeometry x="120" y="520" width="200" height="40" as="geometry" />
        </mxCell>
        <mxCell id="RJd5q02op_8VBt5y6fWm-14" value="Output Result" style="shape=parallelogram;perimeter=parallelogramPerimeter;whiteSpace=wrap;html=1;fixedSize=1;fillColor=#dae8fc;strokeColor=#6c8ebf;" vertex="1" parent="1">
          <mxGeometry x="240" y="600" width="200" height="40" as="geometry" />
        </mxCell>
        <mxCell id="RJd5q02op_8VBt5y6fWm-15" value="FINISH" style="ellipse;whiteSpace=wrap;html=1;fillColor=#f8cecc;strokeColor=#b85450;fontColor=#FF0000;" vertex="1" parent="1">
          <mxGeometry x="240" y="680" width="200" height="40" as="geometry" />
        </mxCell>
        <mxCell id="RJd5q02op_8VBt5y6fWm-17" value="" style="endArrow=classic;html=1;rounded=0;exitX=0.5;exitY=1;exitDx=0;exitDy=0;entryX=0.5;entryY=0;entryDx=0;entryDy=0;fillColor=#d5e8d4;strokeColor=#82b366;" edge="1" parent="1" source="RJd5q02op_8VBt5y6fWm-12" target="RJd5q02op_8VBt5y6fWm-14">
          <mxGeometry width="50" height="50" relative="1" as="geometry">
            <mxPoint x="360" y="480" as="sourcePoint" />
            <mxPoint x="410" y="430" as="targetPoint" />
          </mxGeometry>
        </mxCell>
        <mxCell id="RJd5q02op_8VBt5y6fWm-18" value="" style="endArrow=classic;html=1;rounded=0;exitX=0.5;exitY=1;exitDx=0;exitDy=0;entryX=0.5;entryY=0;entryDx=0;entryDy=0;fillColor=#dae8fc;strokeColor=#6c8ebf;" edge="1" parent="1" source="RJd5q02op_8VBt5y6fWm-14" target="RJd5q02op_8VBt5y6fWm-15">
          <mxGeometry width="50" height="50" relative="1" as="geometry">
            <mxPoint x="330" y="550" as="sourcePoint" />
            <mxPoint x="380" y="500" as="targetPoint" />
          </mxGeometry>
        </mxCell>
        <mxCell id="RJd5q02op_8VBt5y6fWm-20" value="" style="endArrow=classic;html=1;rounded=0;fontColor=#FF0000;exitX=0.5;exitY=1;exitDx=0;exitDy=0;entryX=0.5;entryY=0;entryDx=0;entryDy=0;fillColor=#d5e8d4;strokeColor=#82b366;" edge="1" parent="1" source="RJd5q02op_8VBt5y6fWm-4" target="RJd5q02op_8VBt5y6fWm-10">
          <mxGeometry width="50" height="50" relative="1" as="geometry">
            <mxPoint x="310" y="330" as="sourcePoint" />
            <mxPoint x="360" y="280" as="targetPoint" />
          </mxGeometry>
        </mxCell>
        <mxCell id="RJd5q02op_8VBt5y6fWm-24" value="IF Decision" style="rhombus;whiteSpace=wrap;html=1;labelBorderColor=none;fillColor=#e1d5e7;strokeColor=#9673a6;fontColor=#330066;" vertex="1" parent="1">
          <mxGeometry x="300" y="140" width="80" height="80" as="geometry" />
        </mxCell>
        <mxCell id="RJd5q02op_8VBt5y6fWm-25" value="" style="endArrow=classic;html=1;rounded=0;fontColor=#330066;exitX=0;exitY=1;exitDx=0;exitDy=0;fillColor=#e1d5e7;strokeColor=#9673a6;entryX=0.5;entryY=0;entryDx=0;entryDy=0;" edge="1" parent="1" source="RJd5q02op_8VBt5y6fWm-24" target="RJd5q02op_8VBt5y6fWm-34">
          <mxGeometry width="50" height="50" relative="1" as="geometry">
            <mxPoint x="520" y="430" as="sourcePoint" />
            <mxPoint x="200" y="190" as="targetPoint" />
            <Array as="points">
              <mxPoint x="220" y="200" />
            </Array>
          </mxGeometry>
        </mxCell>
        <mxCell id="RJd5q02op_8VBt5y6fWm-26" value="True" style="rounded=0;whiteSpace=wrap;html=1;labelBorderColor=none;fillColor=#d5e8d4;strokeColor=#82b366;fontColor=#003300;" vertex="1" parent="1">
          <mxGeometry x="140" y="460" width="160" height="30" as="geometry" />
        </mxCell>
        <mxCell id="RJd5q02op_8VBt5y6fWm-27" value="False" style="rounded=0;whiteSpace=wrap;html=1;labelBorderColor=none;fillColor=#d5e8d4;strokeColor=#82b366;fontColor=#003300;" vertex="1" parent="1">
          <mxGeometry x="390" y="405" width="140" height="30" as="geometry" />
        </mxCell>
        <mxCell id="RJd5q02op_8VBt5y6fWm-29" value="" style="endArrow=classic;html=1;rounded=0;fontColor=#330066;exitX=0.5;exitY=1;exitDx=0;exitDy=0;entryX=0.5;entryY=0;entryDx=0;entryDy=0;fillColor=#d5e8d4;strokeColor=#82b366;" edge="1" parent="1" source="RJd5q02op_8VBt5y6fWm-10" target="RJd5q02op_8VBt5y6fWm-26">
          <mxGeometry width="50" height="50" relative="1" as="geometry">
            <mxPoint x="520" y="430" as="sourcePoint" />
            <mxPoint x="570" y="380" as="targetPoint" />
          </mxGeometry>
        </mxCell>
        <mxCell id="RJd5q02op_8VBt5y6fWm-30" value="" style="endArrow=classic;html=1;rounded=0;fontColor=#330066;exitX=1;exitY=0.5;exitDx=0;exitDy=0;entryX=0;entryY=0.5;entryDx=0;entryDy=0;fillColor=#d5e8d4;strokeColor=#82b366;" edge="1" parent="1" source="RJd5q02op_8VBt5y6fWm-10" target="RJd5q02op_8VBt5y6fWm-27">
          <mxGeometry width="50" height="50" relative="1" as="geometry">
            <mxPoint x="520" y="430" as="sourcePoint" />
            <mxPoint x="570" y="380" as="targetPoint" />
          </mxGeometry>
        </mxCell>
        <mxCell id="RJd5q02op_8VBt5y6fWm-31" value="" style="endArrow=classic;html=1;rounded=0;fontColor=#330066;exitX=0.5;exitY=0;exitDx=0;exitDy=0;entryX=1;entryY=1;entryDx=0;entryDy=0;fillColor=#d5e8d4;strokeColor=#82b366;" edge="1" parent="1" source="RJd5q02op_8VBt5y6fWm-27" target="RJd5q02op_8VBt5y6fWm-24">
          <mxGeometry width="50" height="50" relative="1" as="geometry">
            <mxPoint x="520" y="430" as="sourcePoint" />
            <mxPoint x="570" y="380" as="targetPoint" />
          </mxGeometry>
        </mxCell>
        <mxCell id="RJd5q02op_8VBt5y6fWm-32" value="" style="endArrow=classic;html=1;rounded=0;fontColor=#330066;exitX=0.5;exitY=1;exitDx=0;exitDy=0;entryX=0.5;entryY=0;entryDx=0;entryDy=0;fillColor=#d5e8d4;strokeColor=#82b366;" edge="1" parent="1" source="RJd5q02op_8VBt5y6fWm-26" target="RJd5q02op_8VBt5y6fWm-12">
          <mxGeometry width="50" height="50" relative="1" as="geometry">
            <mxPoint x="70" y="510" as="sourcePoint" />
            <mxPoint x="120" y="460" as="targetPoint" />
          </mxGeometry>
        </mxCell>
        <mxCell id="RJd5q02op_8VBt5y6fWm-33" style="edgeStyle=orthogonalEdgeStyle;rounded=0;orthogonalLoop=1;jettySize=auto;html=1;exitX=0.5;exitY=1;exitDx=0;exitDy=0;fontColor=#003300;" edge="1" parent="1" source="RJd5q02op_8VBt5y6fWm-26" target="RJd5q02op_8VBt5y6fWm-26">
          <mxGeometry relative="1" as="geometry" />
        </mxCell>
        <mxCell id="RJd5q02op_8VBt5y6fWm-34" value="Output 3 question" style="shape=parallelogram;perimeter=parallelogramPerimeter;whiteSpace=wrap;html=1;fixedSize=1;labelBorderColor=none;fillColor=#dae8fc;strokeColor=#6c8ebf;fontColor=#000066;" vertex="1" parent="1">
          <mxGeometry x="120" y="220" width="200" height="40" as="geometry" />
        </mxCell>
        <mxCell id="RJd5q02op_8VBt5y6fWm-35" value="" style="endArrow=classic;html=1;rounded=0;fontColor=#000066;exitX=0.5;exitY=1;exitDx=0;exitDy=0;entryX=0.5;entryY=0;entryDx=0;entryDy=0;fillColor=#dae8fc;strokeColor=#6c8ebf;" edge="1" parent="1" source="RJd5q02op_8VBt5y6fWm-34" target="RJd5q02op_8VBt5y6fWm-3">
          <mxGeometry width="50" height="50" relative="1" as="geometry">
            <mxPoint x="30" y="280" as="sourcePoint" />
            <mxPoint x="80" y="230" as="targetPoint" />
          </mxGeometry>
        </mxCell>
      </root>
    </mxGraphModel>
  </diagram>
</mxfile>
